<svg width="19" height="20" xmlns="http://www.w3.org/2000/svg" xmlns:xlink="http://www.w3.org/1999/xlink" xml:space="preserve" overflow="hidden"><g transform="translate(-96 -95)"><path d="M9.5 8.70833C8.51042 8.70833 7.71875 7.91667 7.71875 6.92708 7.71875 5.9375 8.51042 5.14583 9.5 5.14583 10.4896 5.14583 11.2812 5.9375 11.2812 6.92708 11.2812 7.91667 10.4896 8.70833 9.5 8.70833ZM9.5 2.77083C8.13437 2.77083 6.84792 3.44375 6.07604 4.59167 5.30417 5.71979 5.14583 7.16458 5.64062 8.45104L7.52083 12.6073 9.14375 16.0115C9.20312 16.15 9.34167 16.2292 9.5 16.2292 9.65833 16.2292 9.79688 16.15 9.85625 16.0115L11.4792 12.6073 13.3594 8.45104C13.8542 7.16458 13.6958 5.71979 12.924 4.59167 12.1521 3.44375 10.8656 2.77083 9.5 2.77083Z" transform="matrix(1 0 0 1.05263 96 95)"/></g></svg>